<svg xmlns="http://www.w3.org/2000/svg" version="1.1" xmlns:xlink="http://www.w3.org/1999/xlink" xmlns:svgjs="http://svgjs.dev/svgjs" width="2000" height="2250" viewBox="0 0 2000 2250"><g transform="matrix(1,0,0,1,3.410605131648481e-13,0)"><svg viewBox="0 0 320 360" data-background-color="#ffffff" preserveAspectRatio="xMidYMid meet" height="2250" width="2000" xmlns="http://www.w3.org/2000/svg" xmlns:xlink="http://www.w3.org/1999/xlink"><g id="tight-bounds" transform="matrix(1,0,0,1,0,0)"><svg viewBox="0 0 320 360" height="360" width="320"><g><svg></svg></g><g><svg viewBox="0 0 320 360" height="360" width="320"><g><path xmlns="http://www.w3.org/2000/svg" d="M20.961 227.22l3.726 4.658-1.863-6.056c-0.466-2.795-3.726 0.466-1.863 1.398M25.153 224.425c1.397 2.329 2.795 4.658 2.795 6.987 0 3.261 2.795 4.658 5.123 5.589-3.261-3.726-5.124-13.974-7.918-12.576M204.017 26.929c7.918 0 15.371-0.932 23.756 0.931 20.495 5.124 37.729 15.371 49.374 29.811l32.606 52.169c1.397 13.042 4.192 27.482 3.726 43.319 3.261 0 2.795-4.658 6.521-5.59-3.726 9.316-5.59 20.961-6.521 34.469-2.329-7.453 0-18.632 0.466-24.687-3.261 5.124-5.124 1.397-5.124-0.932 0.466-3.726-1.397-3.261-2.795-4.658-5.124-4.658-8.384-9.782-12.11-17.7 2.329-6.055 2.795-14.905-4.658-19.563-2.329-1.397-5.124-3.726-6.521-7.453-1.863-5.124-5.124-11.179-4.193-19.097 0.466-2.329-6.987 5.124-11.179 1.863-18.166-12.576-36.332-27.016-58.224-39.127-11.645 0-20.029-4.192-24.221-9.316-3.726-4.658-0.932-10.713 4.658-11.179 3.261 0 6.987-0.932 9.782 0.932 0.466-1.863 2.329-4.192 4.657-4.192M157.904 16.215l0.932 0.466c4.658 0.932 6.987 7.453 12.11 5.124 0 3.261 0.466 6.521-0.466 8.85-1.397 3.726-5.59 3.726-8.85 3.726-31.208-1.863-49.374 11.179-68.471 22.358-5.124 3.261-10.713 5.59-14.906 9.782-20.029 18.632-41.921 35.866-47.045 70.335l-4.192 38.195c-0.466 4.192-5.124 8.384-4.192 13.508l3.26 22.824c-3.261-3.261-5.124 0.932-4.192 2.795 0.466 1.397 2.329 6.055 5.124 1.863 3.726 6.987 7.453 20.495 12.576 26.55 15.837 18.632 36.332 35.4 53.101 52.169 4.192-0.932 7.453-0.932 8.384-3.727 1.397 2.795-1.397 5.59-3.726 6.056 7.453 4.658 15.837 8.85 27.016 9.781 14.44 0.932 27.948 3.261 40.524 6.522 6.521-1.863 13.042-2.795 20.029-3.261 2.329 0 3.726-3.726 6.521-4.658l0.466-4.658c2.795 4.192 2.329-1.397 0.466-4.192 3.261 2.795 4.192 5.124 5.589 6.987 0-1.397 3.726-6.521 3.727-0.466l0.931-6.055c1.397-0.932 1.863 5.124 3.261 0.931 1.397-4.192 4.192-0.932 6.987-2.329-0.932 1.863-0.466 5.59 2.794 3.261l3.727-3.261c2.329 5.59 6.055 3.261 7.918 2.329 20.495-13.042 40.99-28.413 60.553-43.784l-0.466 6.055 2.329-7.453c2.329 2.329 4.192 0.466 5.124-0.931 2.795-4.658 6.521-9.316 12.577-13.508-7.453 20.029-16.303 35.866-27.482 48.908l-4.658 5.59c0 3.261-0.932 7.453-4.658 7.918-1.863 0.466-5.59-0.932-8.384 1.863-1.397 1.863 3.261 5.59-0.466 2.795-3.261-2.329-6.521 0-10.248 0.932-2.795 0.932 1.863 3.726 2.795 5.589 0.932 1.863 1.863 3.726 1.398 6.056l-5.124-5.59c-6.055 3.261-9.782 9.316-14.906 13.974-2.329 1.863-1.397 5.124-1.397 7.918-3.261 0-6.987-0.932-8.85 0.932-1.397 1.863-0.932 4.658-0.932 7.453-4.658-0.466-5.124-7.453-9.315-6.056-4.192 0.932-8.85 1.397-12.577 3.727 2.795 5.59-4.658 2.329-3.726 3.26-6.987-4.192-13.042-7.453-20.495-4.658-15.837-5.124-35.4-2.795-49.84-0.931 0-2.329 0.466-4.658-0.466-5.124-0.932 2.329-3.726 1.397-3.26 1.397-8.85-6.055-17.7-9.782-27.016-14.905-8.384 0.932-16.303-3.261-18.632-5.59-6.521-6.055-13.974-2.795-20.029-4.192-13.042-3.261-17.7-16.769-19.098-26.084-0.932-4.658-4.658-6.521-6.055-6.056-6.055-19.563-15.371-37.263-22.824-55.429-1.863-4.658-1.397-9.316-1.397-14.44 2.329 0.932 4.658 0.466 4.192-2.794-2.329-15.371-7.918-27.016-13.974-38.195 3.261-15.837 3.726-34.469 11.179-48.443 6.521-12.576 18.632-19.098 27.016-29.811 2.795-3.726 2.795-8.85 5.59-12.11 9.316-9.316 18.632-19.098 28.879-27.482 4.658-3.726 10.247 0 17.234-1.397 2.329-8.384 11.645-15.837 20.495-13.508 3.726 0.932 11.179-8.85 13.508-9.782 3.726-1.397 1.863 3.726 1.863 6.987 8.85-6.987 20.961-10.713 32.14-14.906" fill="#0063db" fill-rule="nonzero" stroke="none" stroke-width="1" stroke-linecap="butt" stroke-linejoin="miter" stroke-miterlimit="10" stroke-dasharray="" stroke-dashoffset="0" font-family="none" font-weight="none" font-size="none" text-anchor="none" style="mix-blend-mode: normal" data-fill-palette-color="tertiary"></path></g><g transform="matrix(1,0,0,1,64,157.65375385670208)"><svg viewBox="0 0 192 44.69249228659582" height="44.69249228659582" width="192"><g><svg viewBox="0 0 192 44.69249228659582" height="44.69249228659582" width="192"><g><svg viewBox="0 0 192 44.69249228659582" height="44.69249228659582" width="192"><g><svg viewBox="0 0 192 44.69249228659582" height="44.69249228659582" width="192"><g id="textblocktransform"><svg viewBox="0 0 192 44.69249228659582" height="44.69249228659582" width="192" id="textblock"><g><svg viewBox="0 0 192 44.69249228659582" height="44.69249228659582" width="192"><g transform="matrix(1,0,0,1,0,0)"><svg width="192" viewBox="2 -33.70000076293945 145.83999633789062 33.95000076293945" height="44.69249228659582" data-palette-color="#0063db"><path d="M36.2-28.9Q36.5-29.95 37.1-30.63 37.7-31.3 38.4-31.3L38.4-31.3Q40.1-31.3 40.85-30.65 41.6-30 41.6-28.4L41.6-28.4Q41.6-27.95 40.9-25.85L40.9-25.85Q39.35-21.1 37.5-14.1L37.5-14.1Q37.05-12.5 36.77-11.3 36.5-10.1 36.3-9.3L36.3-9.3Q35.1-4.15 34.2-1.55L34.2-1.55Q33.9-0.8 33.15-0.38 32.4 0.05 31.55 0.05L31.55 0.05Q30.7 0.05 29.88-0.33 29.05-0.7 28.7-1.2L28.7-1.2Q27.15-4.25 24.88-9.53 22.6-14.8 21.35-18.75L21.35-18.75Q18.25-10.9 15.8-3.6L15.8-3.6Q15.65-3.15 15.48-2.63 15.3-2.1 15.1-1.55L15.1-1.55Q14.75-0.8 14.1-0.38 13.45 0.05 12.65 0.05L12.65 0.05Q11.75 0.05 10.9-0.33 10.05-0.7 9.75-1.2L9.75-1.2Q9.1-2.3 8.38-4.6 7.65-6.9 6.45-11.05L6.45-11.05 5.2-15.3Q3.9-19.45 2.95-23.8 2-28.15 2-29L2-29Q2-30.05 3.05-30.68 4.1-31.3 5.15-31.3L5.15-31.3Q5.75-31.3 6.4-30.93 7.05-30.55 7.25-29.65L7.25-29.65Q9-20.3 12.4-7.95L12.4-7.95Q13.7-11.05 15.28-15.5 16.85-19.95 18.3-24.15L18.3-24.15 18.8-25.65Q19-26.4 19.83-26.83 20.65-27.25 21.5-27.25L21.5-27.25Q22.6-27.25 23.3-26.7 24-26.15 24.2-25.5L24.2-25.5Q24.25-25.3 26.2-19.55 28.15-13.8 30.85-7.95L30.85-7.95Q31.85-10.9 33.25-17.4L33.25-17.4 34-20.7Q35.35-26 36.2-28.9L36.2-28.9ZM45-10.6Q45-12.5 45.7-14.43 46.4-16.35 47.55-17.95L47.55-17.95Q48.7-19.55 51.2-20.58 53.7-21.6 55.65-21.6L55.65-21.6Q57.65-21.6 59.72-21.05 61.8-20.5 62.6-19.35L62.6-19.35Q64.45-16.75 64.45-14.25L64.45-14.25Q64.45-12.9 63.87-11.95 63.3-11 62.25-9.9L62.25-9.9Q61.4-9 59.57-8.7 57.75-8.4 55.95-8.4L55.95-8.4Q54.8-8.4 53.15-8.63 51.5-8.85 49.95-9.2L49.95-9.2Q50.05-8.2 50.45-7.25 50.85-6.3 51.4-5.8L51.4-5.8Q52.4-4.85 53.47-4.6 54.55-4.35 56.25-4.35L56.25-4.35Q58.05-4.35 59.6-4.95L59.6-4.95Q60.85-5.4 61.65-5.4L61.65-5.4Q62.6-5.4 63.1-4.83 63.6-4.25 63.6-3.35L63.6-3.35Q63.6-2.1 62.15-1.3 60.7-0.5 58.82-0.13 56.95 0.25 55.8 0.25L55.8 0.25Q53.45 0.25 51.25-0.6 49.05-1.45 47.6-3L47.6-3Q46.4-4.4 45.7-6.38 45-8.35 45-10.6L45-10.6ZM55.9-17.35Q54.8-17.35 53.7-16.93 52.6-16.5 51.9-15.75L51.9-15.75Q51-14.8 50.67-14.23 50.35-13.65 50.25-12.65L50.25-12.65Q51.5-12.25 55.45-12.25L55.45-12.25Q57.6-12.25 58.77-12.9 59.95-13.55 59.95-14.6L59.95-14.6Q59.95-15.65 58.65-16.5 57.35-17.35 55.9-17.35L55.9-17.35ZM92.05-3.85Q92.3-3.75 92.84-3.6 93.39-3.45 93.64-3.3 93.89-3.15 93.89-2.85L93.89-2.85Q93.94-1.65 93.02-0.88 92.09-0.1 90.84-0.1L90.84-0.1Q88.89-0.1 87.8-1.15 86.69-2.2 86.19-4.35L86.19-4.35Q86-5.2 86-6.7L86-6.7Q86-7.55 86.09-9.45L86.09-9.45Q86.19-11.45 86.19-12.65L86.19-12.65Q86.19-14.4 85.22-15.73 84.25-17.05 82.5-17.05L82.5-17.05Q81.44-17.05 80.3-16.43 79.14-15.8 78.69-14.9L78.69-14.9Q77.94-13.45 77.64-11.75L77.64-11.75Q77.09-8.75 77.09-5.5L77.09-5.5Q77.09-3.95 77.14-3.1L77.14-3.1Q77.14-2.9 77.17-2.33 77.19-1.75 77.07-1.28 76.94-0.8 76.64-0.4L76.64-0.4Q76.39-0.15 75.87 0.03 75.34 0.2 74.89 0.2L74.89 0.2Q74.19 0.2 73.14-0.4 72.09-1 71.94-1.75L71.94-1.75 71.89-2.6Q71.89-3.05 72-3.65L72-3.65Q72.59-7.15 72.59-9.75L72.59-9.75Q72.59-10.9 72.55-11.55L72.55-11.55 72.5-13.9Q72.5-15.1 71.89-16.23 71.3-17.35 70.5-17.35L70.5-17.35Q70.25-17.35 69.8-17.18 69.34-17 69.05-17L69.05-17Q68.55-17 67.97-17.5 67.39-18 67.39-18.55L67.39-18.55Q67.39-19.6 68.09-20.25L68.09-20.25Q68.84-20.85 69.57-21.2 70.3-21.55 71.25-21.55L71.25-21.55Q72.05-21.55 72.55-21.4 73.05-21.25 73.89-20.75L73.89-20.75Q74.34-20.5 74.94-19.65 75.55-18.8 75.94-17.25L75.94-17.25Q77.25-19.65 79.17-20.63 81.09-21.6 84.09-21.6L84.09-21.6Q85.25-21.6 86.57-20.85 87.89-20.1 88.84-19.1L88.84-19.1Q89.75-18 90.34-16.38 90.94-14.75 90.94-13.45L90.94-13.45Q90.94-12.7 90.84-11L90.84-11Q90.69-9.65 90.69-8.15L90.69-8.15Q90.69-4.65 92.05-3.85L92.05-3.85ZM117.44-31.3Q117.44-30.8 117.19-28.55L117.19-28.55Q116.64-23.05 116.64-17.4L116.64-17.4Q116.64-12.45 116.79-9.85 116.94-7.25 117.54-5.88 118.14-4.5 119.39-4.5L119.39-4.5Q121.79-4.5 121.79-2.9L121.79-2.9Q121.79-1.85 120.74-1.13 119.69-0.4 118.44-0.4L118.44-0.4Q116.94-0.4 115.64-1.1 114.34-1.8 113.59-3.25L113.59-3.25Q112.54-1.7 110.57-0.78 108.59 0.15 106.74 0.15L106.74 0.15Q103.89 0.15 101.69-1.05 99.49-2.25 98.29-4.33 97.09-6.4 97.09-8.9L97.09-8.9Q97.09-11.3 97.67-13.53 98.24-15.75 99.24-17.2L99.24-17.2Q100.59-19.1 102.87-20.23 105.14-21.35 107.34-21.35L107.34-21.35Q108.69-21.35 109.89-20.83 111.09-20.3 111.99-19.55L111.99-19.55Q111.99-22.9 111.94-23.75L111.94-23.75 111.94-24.8Q111.94-29.45 112.54-31.6L112.54-31.6Q113.09-33.7 115.19-33.7L115.19-33.7Q116.34-33.7 116.89-33.2 117.44-32.7 117.44-31.3L117.44-31.3ZM102.04-9Q102.04-6.7 103.37-5.3 104.69-3.9 106.54-3.9L106.54-3.9Q109.19-3.9 110.47-5.55 111.74-7.2 111.74-9.8L111.74-9.8 111.69-14.75Q109.74-16.9 107.64-16.9L107.64-16.9Q106.19-16.9 104.92-16.18 103.64-15.45 102.89-14L102.89-14Q102.04-12.35 102.04-9L102.04-9ZM147.84-2.4Q147.84-1.3 146.66-0.55 145.49 0.2 144.49 0.2L144.49 0.2Q142.59 0.2 141.47-0.28 140.34-0.75 139.39-2.05L139.39-2.05Q138.09-0.9 135.84-0.33 133.59 0.25 131.69 0.25L131.69 0.25Q128.59 0.25 126.59-1.43 124.59-3.1 124.59-6.35L124.59-6.35Q124.59-7.75 125.34-8.93 126.09-10.1 127.39-11L127.39-11Q128.84-11.95 130.69-12.48 132.54-13 134.54-13L134.54-13Q135.59-13 137.04-12.6 138.49-12.2 139.29-11.75L139.29-11.75 139.29-12.55Q139.29-15.25 137.99-16.28 136.69-17.3 133.79-17.3L133.79-17.3Q132.94-17.3 132.12-16.95 131.29-16.6 130.24-16L130.24-16Q128.84-15.25 127.59-15.25L127.59-15.25Q127.14-15.25 126.74-15.88 126.34-16.5 126.34-17L126.34-17Q126.34-18.45 127.72-19.5 129.09-20.55 130.99-21.08 132.89-21.6 134.39-21.6L134.39-21.6Q135.89-21.6 137.84-21.03 139.79-20.45 141.04-19.45L141.04-19.45Q142.54-18.15 143.37-16.43 144.19-14.7 144.19-12.65L144.19-12.65Q144.19-12 144.09-10.7L144.09-10.7Q143.99-9.3 143.99-8.3L143.99-8.3Q143.99-7.85 143.89-6.95L143.89-6.95Q143.79-5.85 143.79-5.2L143.79-5.2Q143.79-4.6 144.24-4.17 144.69-3.75 145.29-3.75L145.29-3.75 146.69-3.8Q147.24-3.8 147.54-3.4 147.84-3 147.84-2.4L147.84-2.4ZM131.74-3.7Q133.89-3.7 135.34-4.15 136.79-4.6 138.84-5.8L138.84-5.8Q139.04-6.65 139.09-8.05L139.09-8.05Q136.34-9.35 134.54-9.35L134.54-9.35Q132.49-9.35 130.89-8.6 129.29-7.85 129.29-5.95L129.29-5.95Q129.29-5 130.09-4.35 130.89-3.7 131.74-3.7L131.74-3.7Z" opacity="1" transform="matrix(1,0,0,1,0,0)" fill="#0063db" class="wordmark-text-0" data-fill-palette-color="primary" id="text-0"></path></svg></g></svg></g></svg></g></svg></g><g></g></svg></g></svg></g></svg></g></svg></g><defs></defs></svg><rect width="320" height="360" fill="none" stroke="none" visibility="hidden"></rect></g></svg></g></svg>